<svg id="Componente_1_1" data-name="Componente 1 – 1" xmlns="http://www.w3.org/2000/svg" width="1296" height="1296" viewBox="0 0 1296 1296">
  <circle id="Elipse_1" data-name="Elipse 1" cx="648" cy="648" r="648" fill="#fff"/>
  <g id="União_1" data-name="União 1" transform="translate(41.754 631.878) rotate(-19)">
    <path d="M 273.6081848144531 443.3388671875 L 169.4441833496094 443.3388671875 L 169.4441833496094 274.5950317382812 L 169.4441833496094 274.0950317382812 L 168.9441833496094 274.0950317382812 L 0.5000107288360596 274.0950317382812 L 0.5000107288360596 169.7442626953125 L 168.9441833496094 169.7442626953125 L 169.4441833496094 169.7442626953125 L 169.4441833496094 169.2442626953125 L 169.4441833496094 0.4999891519546509 L 273.6081848144531 0.4999891519546509 L 273.6081848144531 169.2442626953125 L 273.6081848144531 169.7442626953125 L 274.1081848144531 169.7442626953125 L 442.5519104003906 169.7442626953125 L 442.5519104003906 274.0950317382812 L 274.1081848144531 274.0950317382812 L 273.6081848144531 274.0950317382812 L 273.6081848144531 274.5950317382812 L 273.6081848144531 443.3388671875 Z" stroke="none"/>
    <path d="M 273.1081848144531 442.8388671875 L 273.1081848144531 273.5950317382812 L 442.0519104003906 273.5950317382812 L 442.0519104003906 170.2442626953125 L 273.1081848144531 170.2442626953125 L 273.1081848144531 0.9999891519546509 L 169.9441833496094 0.9999891519546509 L 169.9441833496094 170.2442626953125 L 1.00001072883606 170.2442626953125 L 1.00001072883606 273.5950317382812 L 169.9441833496094 273.5950317382812 L 169.9441833496094 442.8388671875 L 273.1081848144531 442.8388671875 M 274.1081848144531 443.8388671875 L 168.9441833496094 443.8388671875 L 168.9441833496094 274.5950317382812 L 1.075575073627988e-05 274.5950317382812 L 1.075575073627988e-05 169.2442626953125 L 168.9441833496094 169.2442626953125 L 168.9441833496094 -1.085069470718736e-05 L 274.1081848144531 -1.085069470718736e-05 L 274.1081848144531 169.2442626953125 L 443.0519104003906 169.2442626953125 L 443.0519104003906 274.5950317382812 L 274.1081848144531 274.5950317382812 L 274.1081848144531 443.8388671875 Z" stroke="none" fill="#707070"/>
  </g>
  <g id="União_2" data-name="União 2" transform="translate(630.072 404.335) rotate(-19)">
    <path d="M 245.5281829833984 490.5556030273438 C 240.0088043212891 490.5556030273438 234.4930572509766 489.9996032714844 229.1341705322266 488.9029846191406 C 223.9116821289062 487.8343505859375 218.7747344970703 486.23974609375 213.8659210205078 484.1634826660156 C 209.0461120605469 482.1249389648438 204.3973693847656 479.6016845703125 200.0488586425781 476.6638488769531 C 195.7414855957031 473.7539367675781 191.6910552978516 470.4119873046875 188.0099945068359 466.7309875488281 C 184.3289337158203 463.0499267578125 180.9869842529297 458.9994812011719 178.0769958496094 454.6921691894531 C 175.1391754150391 450.3436889648438 172.6159210205078 445.6949768066406 170.5773620605469 440.875244140625 C 168.5011138916016 435.9664916992188 166.906494140625 430.8295593261719 165.8378601074219 425.607177734375 C 164.7412414550781 420.248291015625 164.1852416992188 414.7326049804688 164.1852416992188 409.21337890625 C 164.1852416992188 403.6940002441406 164.7412414550781 398.1782531738281 165.8378601074219 392.8193664550781 C 166.906494140625 387.5968627929688 168.5011138916016 382.4599304199219 170.5773620605469 377.5511169433594 C 172.6159210205078 372.7312927246094 175.1391754150391 368.0825500488281 178.0769958496094 363.7340393066406 C 180.9869842529297 359.4266662597656 184.3289337158203 355.3762512207031 188.0099945068359 351.6951904296875 C 191.6910552978516 348.0140991210938 195.7414855957031 344.6721801757812 200.0488586425781 341.7621765136719 C 204.3973693847656 338.8243713378906 209.0461120605469 336.3011169433594 213.8659210205078 334.2625427246094 C 218.7747344970703 332.1863098144531 223.9116821289062 330.5916748046875 229.1341705322266 329.5230407714844 C 234.4930572509766 328.4264221191406 240.0088043212891 327.8704223632812 245.5281829833984 327.8704223632812 C 251.0474243164062 327.8704223632812 256.5631103515625 328.4264221191406 261.9219360351562 329.5230407714844 C 267.1443786621094 330.5916748046875 272.28125 332.1863098144531 277.1900024414062 334.2625427246094 C 282.0097351074219 336.3011169433594 286.6584167480469 338.8243713378906 291.0069274902344 341.7621765136719 C 295.3143005371094 344.6721801757812 299.36474609375 348.0140991210938 303.0457458496094 351.6951904296875 C 306.726806640625 355.3762512207031 310.0686645507812 359.4266662597656 312.9786682128906 363.7340393066406 C 315.91650390625 368.0825500488281 318.4397277832031 372.7312927246094 320.4783020019531 377.5511169433594 C 322.5545654296875 382.4599304199219 324.149169921875 387.5968627929688 325.2178039550781 392.8193664550781 C 326.3144226074219 398.1782531738281 326.8704223632812 403.6940002441406 326.8704223632812 409.21337890625 C 326.8704223632812 414.7326049804688 326.3144226074219 420.248291015625 325.2178039550781 425.607177734375 C 324.149169921875 430.8295593261719 322.5545654296875 435.9664916992188 320.4783020019531 440.875244140625 C 318.4397277832031 445.6949768066406 315.91650390625 450.3436889648438 312.9786682128906 454.6921691894531 C 310.0686645507812 458.9994812011719 306.726806640625 463.0499267578125 303.0457458496094 466.7309875488281 C 299.36474609375 470.4119873046875 295.3143005371094 473.7539367675781 291.0069274902344 476.6638488769531 C 286.6584167480469 479.6016845703125 282.0097351074219 482.1249389648438 277.1900024414062 484.1634826660156 C 272.28125 486.23974609375 267.144287109375 487.8343505859375 261.9219360351562 488.9029846191406 C 256.5631103515625 489.9996032714844 251.0474243164062 490.5556030273438 245.5281829833984 490.5556030273438 Z M 409.21337890625 326.8704223632812 C 403.6940002441406 326.8704223632812 398.1782531738281 326.3144226074219 392.8193664550781 325.2178039550781 C 387.5968627929688 324.149169921875 382.4599304199219 322.5545654296875 377.5511169433594 320.4783020019531 C 372.7312927246094 318.4397277832031 368.0825500488281 315.91650390625 363.7340393066406 312.9786682128906 C 359.4266662597656 310.0686645507812 355.3762512207031 306.726806640625 351.6951904296875 303.0457458496094 C 348.0140991210938 299.36474609375 344.6721801757812 295.3143005371094 341.7621765136719 291.0069274902344 C 338.8243713378906 286.6584167480469 336.3011169433594 282.0097351074219 334.2625427246094 277.1900024414062 C 332.1863098144531 272.28125 330.5916748046875 267.1443786621094 329.5230407714844 261.9219360351562 C 328.4264221191406 256.5631103515625 327.8704223632812 251.0474243164062 327.8704223632812 245.5281829833984 C 327.8704223632812 240.0088043212891 328.4264221191406 234.4930572509766 329.5230407714844 229.1341705322266 C 330.5916748046875 223.9116821289062 332.1863098144531 218.7747344970703 334.2625427246094 213.8659210205078 C 336.3011169433594 209.0461120605469 338.8243713378906 204.3973693847656 341.7621765136719 200.0488586425781 C 344.6721801757812 195.7414855957031 348.0140991210938 191.6910552978516 351.6951904296875 188.0099945068359 C 355.3762512207031 184.3289337158203 359.4266662597656 180.9869842529297 363.7340393066406 178.0769958496094 C 368.0825500488281 175.1391754150391 372.7312927246094 172.6159210205078 377.5511169433594 170.5773620605469 C 382.4599304199219 168.5011138916016 387.5968627929688 166.906494140625 392.8193664550781 165.8378601074219 C 398.1782531738281 164.7412414550781 403.6940002441406 164.1852416992188 409.21337890625 164.1852416992188 C 414.7326049804688 164.1852416992188 420.248291015625 164.7412414550781 425.607177734375 165.8378601074219 C 430.8295593261719 166.906494140625 435.9664916992188 168.5011138916016 440.875244140625 170.5773620605469 C 445.6949768066406 172.6159210205078 450.3436889648438 175.1391754150391 454.6921691894531 178.0769958496094 C 458.9994812011719 180.9869842529297 463.0499267578125 184.3289337158203 466.7309875488281 188.0099945068359 C 470.4119873046875 191.6910552978516 473.7539367675781 195.7414855957031 476.6638488769531 200.0488586425781 C 479.6016845703125 204.3973693847656 482.1249389648438 209.0461120605469 484.1634826660156 213.8659210205078 C 486.23974609375 218.7747344970703 487.8343505859375 223.9116821289062 488.9029846191406 229.1341705322266 C 489.9996032714844 234.4930572509766 490.5556030273438 240.0088043212891 490.5556030273438 245.5281829833984 C 490.5556030273438 251.0474243164062 489.9996032714844 256.5631103515625 488.9029846191406 261.9219360351562 C 487.8343505859375 267.144287109375 486.23974609375 272.28125 484.1634826660156 277.1900024414062 C 482.1249389648438 282.0097351074219 479.6016845703125 286.6584167480469 476.6638488769531 291.0069274902344 C 473.7539367675781 295.3143005371094 470.4119873046875 299.36474609375 466.7309875488281 303.0457458496094 C 463.0499267578125 306.726806640625 458.9994812011719 310.0686645507812 454.6921691894531 312.9786682128906 C 450.3436889648438 315.91650390625 445.6949768066406 318.4397277832031 440.875244140625 320.4783020019531 C 435.9664916992188 322.5545654296875 430.8295593261719 324.149169921875 425.607177734375 325.2178039550781 C 420.248291015625 326.3144226074219 414.7326049804688 326.8704223632812 409.21337890625 326.8704223632812 Z M 81.84298706054688 326.8704223632812 C 76.32361602783203 326.8704223632812 70.807861328125 326.3144226074219 65.44898986816406 325.2178039550781 C 60.22649002075195 324.149169921875 55.08955001831055 322.5545654296875 50.18074035644531 320.4783020019531 C 45.36092758178711 318.4397277832031 40.71217727661133 315.91650390625 36.36361312866211 312.9786682128906 C 32.05630111694336 310.0686645507812 28.00580215454102 306.726806640625 24.32473945617676 303.0457458496094 C 20.6436767578125 299.36474609375 17.30173873901367 295.3143005371094 14.39173889160156 291.0069274902344 C 11.45392608642578 286.6584167480469 8.930676460266113 282.0097351074219 6.892114162445068 277.1900024414062 C 4.815864086151123 272.28125 3.22123908996582 267.1443786621094 2.152614116668701 261.9219360351562 C 1.055989027023315 256.5631103515625 0.4999890029430389 251.0474243164062 0.4999890029430389 245.5281829833984 C 0.4999890029430389 240.0088043212891 1.055989027023315 234.4930572509766 2.152614116668701 229.1341705322266 C 3.22123908996582 223.9116821289062 4.815864086151123 218.7747344970703 6.892114162445068 213.8659210205078 C 8.930676460266113 209.0461120605469 11.45392608642578 204.3973693847656 14.39180183410645 200.0488586425781 C 17.30173873901367 195.7414855957031 20.6436767578125 191.6910552978516 24.32473945617676 188.0099945068359 C 28.00580215454102 184.3289337158203 32.05630111694336 180.9869842529297 36.36361312866211 178.0769958496094 C 40.71217727661133 175.1391754150391 45.36092758178711 172.6159210205078 50.18074035644531 170.5773620605469 C 55.08955001831055 168.5011138916016 60.22649002075195 166.906494140625 65.44898986816406 165.8378601074219 C 70.807861328125 164.7412414550781 76.32361602783203 164.1852416992188 81.84298706054688 164.1852416992188 C 87.36223602294922 164.1852416992188 92.8779296875 164.7412414550781 98.23674011230469 165.8378601074219 C 103.4591751098633 166.906494140625 108.5960540771484 168.5011138916016 113.5047988891602 170.5773620605469 C 118.3245544433594 172.6159210205078 122.9732360839844 175.1391754150391 127.3217391967773 178.0769958496094 C 131.6291198730469 180.9869842529297 135.6795501708984 184.3289337158203 139.3605499267578 188.0099945068359 C 143.0416107177734 191.6910552978516 146.3834838867188 195.7414855957031 149.2934875488281 200.0488586425781 C 152.2313079833984 204.3973693847656 154.7545471191406 209.0461120605469 156.7931213378906 213.8659210205078 C 158.8693695068359 218.7747344970703 160.4639892578125 223.9116821289062 161.5326080322266 229.1341705322266 C 162.6292419433594 234.4930572509766 163.1852416992188 240.0088043212891 163.1852416992188 245.5281829833984 C 163.1852416992188 251.0474243164062 162.6292419433594 256.5631103515625 161.5326080322266 261.9219360351562 C 160.4639892578125 267.144287109375 158.8693695068359 272.28125 156.7931213378906 277.1900024414062 C 154.7545471191406 282.0097351074219 152.2313079833984 286.6584167480469 149.2934875488281 291.0069274902344 C 146.3834838867188 295.3143005371094 143.0416107177734 299.36474609375 139.3605499267578 303.0457458496094 C 135.6795501708984 306.726806640625 131.6291198730469 310.0686645507812 127.3217391967773 312.9786682128906 C 122.9732360839844 315.91650390625 118.3245544433594 318.4397277832031 113.5047988891602 320.4783020019531 C 108.5960540771484 322.5545654296875 103.459114074707 324.149169921875 98.23674011230469 325.2178039550781 C 92.8779296875 326.3144226074219 87.36223602294922 326.8704223632812 81.84298706054688 326.8704223632812 Z M 245.5281829833984 163.1852416992188 C 240.0088043212891 163.1852416992188 234.4930572509766 162.6292419433594 229.1341705322266 161.5326080322266 C 223.9116821289062 160.4639892578125 218.7747344970703 158.8693695068359 213.8659210205078 156.7931213378906 C 209.0461120605469 154.7545471191406 204.3973693847656 152.2313079833984 200.0488586425781 149.2934875488281 C 195.7414855957031 146.3834838867188 191.6910552978516 143.0416107177734 188.0099945068359 139.3605499267578 C 184.3289337158203 135.6795501708984 180.9869842529297 131.6291198730469 178.0769958496094 127.3217391967773 C 175.1391754150391 122.9732360839844 172.6159210205078 118.3245544433594 170.5773620605469 113.5047988891602 C 168.5011138916016 108.5960540771484 166.906494140625 103.4591751098633 165.8378601074219 98.23674011230469 C 164.7412414550781 92.8779296875 164.1852416992188 87.36223602294922 164.1852416992188 81.84298706054688 C 164.1852416992188 76.32361602783203 164.7412414550781 70.807861328125 165.8378601074219 65.44898986816406 C 166.906494140625 60.22649002075195 168.5011138916016 55.08955001831055 170.5773620605469 50.18074035644531 C 172.6159210205078 45.36092758178711 175.1391754150391 40.71217727661133 178.0769958496094 36.36361312866211 C 180.9869842529297 32.05630111694336 184.3289337158203 28.00580215454102 188.0099945068359 24.32473945617676 C 191.6910552978516 20.6436767578125 195.7414855957031 17.30173873901367 200.0488586425781 14.39180183410645 C 204.3973693847656 11.45392608642578 209.0461120605469 8.930676460266113 213.8659210205078 6.892114162445068 C 218.7747344970703 4.815864086151123 223.9116821289062 3.22123908996582 229.1341705322266 2.152614116668701 C 234.4930572509766 1.055989027023315 240.0088043212891 0.4999890029430389 245.5281829833984 0.4999890029430389 C 251.0474243164062 0.4999890029430389 256.5631103515625 1.055989027023315 261.9219360351562 2.152614116668701 C 267.1443786621094 3.22123908996582 272.28125 4.815864086151123 277.1900024414062 6.892114162445068 C 282.0097351074219 8.930676460266113 286.6584167480469 11.45392608642578 291.0069274902344 14.39173889160156 C 295.3143005371094 17.30173873901367 299.36474609375 20.6436767578125 303.0457458496094 24.32473945617676 C 306.726806640625 28.00580215454102 310.0686645507812 32.05630111694336 312.9786682128906 36.36361312866211 C 315.91650390625 40.71217727661133 318.4397277832031 45.36092758178711 320.4783020019531 50.18074035644531 C 322.5545654296875 55.08955001831055 324.149169921875 60.22649002075195 325.2178039550781 65.44898986816406 C 326.3144226074219 70.807861328125 326.8704223632812 76.32361602783203 326.8704223632812 81.84298706054688 C 326.8704223632812 87.36223602294922 326.3144226074219 92.8779296875 325.2178039550781 98.23674011230469 C 324.149169921875 103.459114074707 322.5545654296875 108.5960540771484 320.4783020019531 113.5047988891602 C 318.4397277832031 118.3245544433594 315.91650390625 122.9732360839844 312.9786682128906 127.3217391967773 C 310.0686645507812 131.6291198730469 306.726806640625 135.6795501708984 303.0457458496094 139.3605499267578 C 299.36474609375 143.0416107177734 295.3143005371094 146.3834838867188 291.0069274902344 149.2934875488281 C 286.6584167480469 152.2313079833984 282.0097351074219 154.7545471191406 277.1900024414062 156.7931213378906 C 272.28125 158.8693695068359 267.144287109375 160.4639892578125 261.9219360351562 161.5326080322266 C 256.5631103515625 162.6292419433594 251.0474243164062 163.1852416992188 245.5281829833984 163.1852416992188 Z" stroke="none"/>
    <path d="M 245.5281829833984 490.0556030273438 C 251.0138702392578 490.0556030273438 256.4957885742188 489.5029907226562 261.8216857910156 488.4131774902344 C 267.0117492675781 487.3511047363281 272.1168518066406 485.7664184570312 276.9952392578125 483.7030029296875 C 281.7852478027344 481.677001953125 286.4053039550781 479.1693115234375 290.72705078125 476.2495422363281 C 295.0079956054688 473.357421875 299.03369140625 470.0359191894531 302.6921691894531 466.37744140625 C 306.3507385253906 462.7188720703125 309.6722412109375 458.6932373046875 312.5643615722656 454.4122314453125 C 315.4841003417969 450.0904846191406 317.9917907714844 445.4704284667969 320.0177917480469 440.680419921875 C 322.0811767578125 435.8020629882812 323.6659240722656 430.6969909667969 324.7279968261719 425.5069274902344 C 325.8178100585938 420.1809997558594 326.3704223632812 414.6990661621094 326.3704223632812 409.21337890625 C 326.3704223632812 403.7276000976562 325.8178100585938 398.24560546875 324.7279968261719 392.9196166992188 C 323.6659240722656 387.7294921875 322.0811767578125 382.6242980957031 320.0177917480469 377.745849609375 C 317.9917907714844 372.955810546875 315.4841003417969 368.3357238769531 312.5643615722656 364.013916015625 C 309.6722412109375 359.7329406738281 306.3507385253906 355.7073059082031 302.6921691894531 352.0487365722656 C 299.03369140625 348.3901672363281 295.0079956054688 345.0686645507812 290.72705078125 342.1764831542969 C 286.4053039550781 339.2567443847656 281.7852478027344 336.7490539550781 276.9952392578125 334.7230529785156 C 272.1168518066406 332.65966796875 267.0117492675781 331.0749206542969 261.8216857910156 330.0128784179688 C 256.4957885742188 328.9230651855469 251.0138702392578 328.3704223632812 245.5281829833984 328.3704223632812 C 240.0424194335938 328.3704223632812 234.5604248046875 328.9230651855469 229.2344207763672 330.0128784179688 C 224.0442962646484 331.0749206542969 218.9391174316406 332.65966796875 214.0606689453125 334.7230529785156 C 209.2706146240234 336.7490539550781 204.6505584716797 339.2567443847656 200.3287353515625 342.1764831542969 C 196.0477447509766 345.0686645507812 192.0221099853516 348.3901672363281 188.3635559082031 352.0487365722656 C 184.7049865722656 355.7073059082031 181.3834838867188 359.7329406738281 178.4913024902344 364.013916015625 C 175.5715484619141 368.3357238769531 173.0638580322266 372.955810546875 171.0378570556641 377.745849609375 C 168.9744873046875 382.6242980957031 167.3897399902344 387.7294921875 166.3276824951172 392.9196166992188 C 165.2378692626953 398.24560546875 164.6852416992188 403.7276000976562 164.6852416992188 409.21337890625 C 164.6852416992188 414.6990661621094 165.2378692626953 420.1809997558594 166.3276824951172 425.5069274902344 C 167.3897399902344 430.6969909667969 168.9744873046875 435.8021240234375 171.0378570556641 440.680419921875 C 173.0638580322266 445.4704284667969 175.5715484619141 450.0904846191406 178.4913024902344 454.4122314453125 C 181.3834838867188 458.6932373046875 184.7049865722656 462.7188720703125 188.3635559082031 466.37744140625 C 192.0221099853516 470.0359191894531 196.0477447509766 473.357421875 200.3287353515625 476.2495422363281 C 204.6505584716797 479.1693115234375 209.2706146240234 481.677001953125 214.0606689453125 483.7030029296875 C 218.9391174316406 485.766357421875 224.0442962646484 487.3511047363281 229.2344207763672 488.4131774902344 C 234.5604248046875 489.5029907226562 240.0424194335938 490.0556030273438 245.5281829833984 490.0556030273438 M 409.21337890625 326.3704223632812 C 414.6990661621094 326.3704223632812 420.1809997558594 325.8178100585938 425.5069274902344 324.7279968261719 C 430.6969909667969 323.6659240722656 435.8020629882812 322.0811767578125 440.680419921875 320.0177917480469 C 445.4704284667969 317.9917907714844 450.0904846191406 315.4841003417969 454.4122314453125 312.5643615722656 C 458.6932373046875 309.6722412109375 462.7188720703125 306.3507385253906 466.37744140625 302.6921691894531 C 470.0359191894531 299.03369140625 473.357421875 295.0079956054688 476.2495422363281 290.72705078125 C 479.1693115234375 286.4053039550781 481.677001953125 281.7852478027344 483.7030029296875 276.9952392578125 C 485.7664184570312 272.1168518066406 487.3511047363281 267.0117492675781 488.4131774902344 261.8216857910156 C 489.5029907226562 256.4957885742188 490.0556030273438 251.0138702392578 490.0556030273438 245.5281829833984 C 490.0556030273438 240.0424194335938 489.5029907226562 234.5604248046875 488.4131774902344 229.2344207763672 C 487.3511047363281 224.0442962646484 485.766357421875 218.9391174316406 483.7030029296875 214.0606689453125 C 481.677001953125 209.2706146240234 479.1693115234375 204.6505584716797 476.2495422363281 200.3287353515625 C 473.357421875 196.0477447509766 470.0359191894531 192.0221099853516 466.37744140625 188.3635559082031 C 462.7188720703125 184.7049865722656 458.6932373046875 181.3834838867188 454.4122314453125 178.4913024902344 C 450.0904846191406 175.5715484619141 445.4704284667969 173.0638580322266 440.680419921875 171.0378570556641 C 435.8021240234375 168.9744873046875 430.6969909667969 167.3897399902344 425.5069274902344 166.3276824951172 C 420.1809997558594 165.2378692626953 414.6990661621094 164.6852416992188 409.21337890625 164.6852416992188 C 403.7276000976562 164.6852416992188 398.24560546875 165.2378692626953 392.9196166992188 166.3276824951172 C 387.7294921875 167.3897399902344 382.6242980957031 168.9744873046875 377.745849609375 171.0378570556641 C 372.955810546875 173.0638580322266 368.3357238769531 175.5715484619141 364.013916015625 178.4913024902344 C 359.7329406738281 181.3834838867188 355.7073059082031 184.7049865722656 352.0487365722656 188.3635559082031 C 348.3901672363281 192.0221099853516 345.0686645507812 196.0477447509766 342.1764831542969 200.3287353515625 C 339.2567443847656 204.6505584716797 336.7490539550781 209.2706146240234 334.7230529785156 214.0606689453125 C 332.65966796875 218.9391174316406 331.0749206542969 224.0442962646484 330.0128784179688 229.2344207763672 C 328.9230651855469 234.5604248046875 328.3704223632812 240.0424194335938 328.3704223632812 245.5281829833984 C 328.3704223632812 251.0138702392578 328.9230651855469 256.4957885742188 330.0128784179688 261.8216857910156 C 331.0749206542969 267.0117492675781 332.65966796875 272.1168518066406 334.7230529785156 276.9952392578125 C 336.7490539550781 281.7852478027344 339.2567443847656 286.4053039550781 342.1764831542969 290.72705078125 C 345.0686645507812 295.0079956054688 348.3901672363281 299.03369140625 352.0487365722656 302.6921691894531 C 355.7073059082031 306.3507385253906 359.7329406738281 309.6722412109375 364.013916015625 312.5643615722656 C 368.3357238769531 315.4841003417969 372.955810546875 317.9917907714844 377.745849609375 320.0177917480469 C 382.6242980957031 322.0811767578125 387.7294921875 323.6659240722656 392.9196166992188 324.7279968261719 C 398.24560546875 325.8178100585938 403.7276000976562 326.3704223632812 409.21337890625 326.3704223632812 M 81.84298706054688 326.3704223632812 C 87.32867431640625 326.3704223632812 92.81061553955078 325.8178100585938 98.13648986816406 324.7279968261719 C 103.3265533447266 323.6659240722656 108.4316787719727 322.0811767578125 113.3100509643555 320.0177917480469 C 118.1000518798828 317.9917907714844 122.7201156616211 315.4841003417969 127.041862487793 312.5643615722656 C 131.3227996826172 309.6722412109375 135.3484954833984 306.3507385253906 139.0069885253906 302.6921691894531 C 142.6655578613281 299.03369140625 145.9870452880859 295.0079956054688 148.8791809082031 290.72705078125 C 151.7989196777344 286.4053039550781 154.3066101074219 281.7852478027344 156.3326110839844 276.9952392578125 C 158.39599609375 272.1168518066406 159.9807434082031 267.0117492675781 161.0428009033203 261.8216857910156 C 162.1326141357422 256.4957885742188 162.6852416992188 251.0138702392578 162.6852416992188 245.5281829833984 C 162.6852416992188 240.0424194335938 162.1326141357422 234.5604248046875 161.0428009033203 229.2344207763672 C 159.9807434082031 224.0442962646484 158.39599609375 218.9391174316406 156.3326110839844 214.0606689453125 C 154.3066101074219 209.2706146240234 151.7989196777344 204.6505584716797 148.8791809082031 200.3287353515625 C 145.9870452880859 196.0477447509766 142.6655578613281 192.0221099853516 139.0069885253906 188.3635559082031 C 135.3484954833984 184.7049865722656 131.3227996826172 181.3834838867188 127.041862487793 178.4913024902344 C 122.7201156616211 175.5715484619141 118.1000518798828 173.0638580322266 113.3100509643555 171.0378570556641 C 108.4316787719727 168.9744873046875 103.3265533447266 167.3897399902344 98.13648986816406 166.3276824951172 C 92.81061553955078 165.2378692626953 87.32867431640625 164.6852416992188 81.84298706054688 164.6852416992188 C 76.35723876953125 164.6852416992188 70.87523651123047 165.2378692626953 65.54924011230469 166.3276824951172 C 60.35911560058594 167.3897399902344 55.25392532348633 168.9744873046875 50.37548828125 171.0378570556641 C 45.58542633056641 173.0638580322266 40.96536254882812 175.5715484619141 36.64355087280273 178.4913024902344 C 32.36255264282227 181.3834838867188 28.33686447143555 184.7049865722656 24.67830085754395 188.3635559082031 C 21.01973915100098 192.0221099853516 17.69823837280273 196.0477447509766 14.80605125427246 200.3287353515625 C 11.8863639831543 204.6505584716797 9.37861442565918 209.2706146240234 7.352613925933838 214.0606689453125 C 5.289238929748535 218.9391174316406 3.70448899269104 224.0442962646484 2.642426490783691 229.2344207763672 C 1.552613973617554 234.5604248046875 0.9999890327453613 240.0424194335938 0.9999890327453613 245.5281829833984 C 0.9999890327453613 251.0138702392578 1.552613973617554 256.4957885742188 2.642426490783691 261.8216857910156 C 3.70448899269104 267.0117492675781 5.289238929748535 272.1168518066406 7.352613925933838 276.9952392578125 C 9.37861442565918 281.7852478027344 11.8863639831543 286.4053039550781 14.80605125427246 290.72705078125 C 17.69823837280273 295.0079956054688 21.01973915100098 299.03369140625 24.67830085754395 302.6921691894531 C 28.33686447143555 306.3507385253906 32.36255264282227 309.6722412109375 36.64355087280273 312.5643615722656 C 40.96536254882812 315.4841003417969 45.58542633056641 317.9917907714844 50.37548828125 320.0177917480469 C 55.25392532348633 322.0811767578125 60.35911560058594 323.6659240722656 65.54924011230469 324.7279968261719 C 70.87523651123047 325.8178100585938 76.35723876953125 326.3704223632812 81.84298706054688 326.3704223632812 M 245.5281829833984 162.6852416992188 C 251.0138702392578 162.6852416992188 256.4957885742188 162.1326141357422 261.8216857910156 161.0428009033203 C 267.0117492675781 159.9807434082031 272.1168518066406 158.39599609375 276.9952392578125 156.3326110839844 C 281.7852478027344 154.3066101074219 286.4053039550781 151.7989196777344 290.72705078125 148.8791809082031 C 295.0079956054688 145.9870452880859 299.03369140625 142.6655578613281 302.6921691894531 139.0069885253906 C 306.3507385253906 135.3484954833984 309.6722412109375 131.3227996826172 312.5643615722656 127.041862487793 C 315.4841003417969 122.7201156616211 317.9917907714844 118.1000518798828 320.0177917480469 113.3100509643555 C 322.0811767578125 108.4316787719727 323.6659240722656 103.3265533447266 324.7279968261719 98.13648986816406 C 325.8178100585938 92.81061553955078 326.3704223632812 87.32867431640625 326.3704223632812 81.84298706054688 C 326.3704223632812 76.35723876953125 325.8178100585938 70.87523651123047 324.7279968261719 65.54924011230469 C 323.6659240722656 60.35911560058594 322.0811767578125 55.25392532348633 320.0177917480469 50.37548828125 C 317.9917907714844 45.58542633056641 315.4841003417969 40.96536254882812 312.5643615722656 36.64355087280273 C 309.6722412109375 32.36255264282227 306.3507385253906 28.33686447143555 302.6921691894531 24.67830085754395 C 299.03369140625 21.01973915100098 295.0079956054688 17.69823837280273 290.72705078125 14.80605125427246 C 286.4053039550781 11.8863639831543 281.7852478027344 9.37861442565918 276.9952392578125 7.352613925933838 C 272.1168518066406 5.289238929748535 267.0117492675781 3.70448899269104 261.8216857910156 2.642426490783691 C 256.4957885742188 1.552613973617554 251.0138702392578 0.9999890327453613 245.5281829833984 0.9999890327453613 C 240.0424194335938 0.9999890327453613 234.5604248046875 1.552613973617554 229.2344207763672 2.642426490783691 C 224.0442962646484 3.70448899269104 218.9391174316406 5.289238929748535 214.0606689453125 7.352613925933838 C 209.2706146240234 9.37861442565918 204.6505584716797 11.8863639831543 200.3287353515625 14.80605125427246 C 196.0477447509766 17.69823837280273 192.0221099853516 21.01973915100098 188.3635559082031 24.67830085754395 C 184.7049865722656 28.33686447143555 181.3834838867188 32.36255264282227 178.4913024902344 36.64355087280273 C 175.5715484619141 40.96536254882812 173.0638580322266 45.58542633056641 171.0378570556641 50.37548828125 C 168.9744873046875 55.25392532348633 167.3897399902344 60.35911560058594 166.3276824951172 65.54924011230469 C 165.2378692626953 70.87523651123047 164.6852416992188 76.35723876953125 164.6852416992188 81.84298706054688 C 164.6852416992188 87.32867431640625 165.2378692626953 92.81061553955078 166.3276824951172 98.13648986816406 C 167.3897399902344 103.3265533447266 168.9744873046875 108.4316787719727 171.0378570556641 113.3100509643555 C 173.0638580322266 118.1000518798828 175.5715484619141 122.7201156616211 178.4913024902344 127.041862487793 C 181.3834838867188 131.3227996826172 184.7049865722656 135.3484954833984 188.3635559082031 139.0069885253906 C 192.0221099853516 142.6655578613281 196.0477447509766 145.9870452880859 200.3287353515625 148.8791809082031 C 204.6505584716797 151.7989196777344 209.2706146240234 154.3066101074219 214.0606689453125 156.3326110839844 C 218.9391174316406 158.39599609375 224.0442962646484 159.9807434082031 229.2344207763672 161.0428009033203 C 234.5604248046875 162.1326141357422 240.0424194335938 162.6852416992188 245.5281829833984 162.6852416992188 M 245.5281829833984 491.0556030273438 C 200.3274230957031 491.0556030273438 163.6852416992188 454.4134216308594 163.6852416992188 409.21337890625 C 163.6852416992188 364.0126037597656 200.3274230957031 327.3704223632812 245.5281829833984 327.3704223632812 C 290.7281799316406 327.3704223632812 327.3704223632812 364.0126037597656 327.3704223632812 409.21337890625 C 327.3704223632812 454.4134216308594 290.7281799316406 491.0556030273438 245.5281829833984 491.0556030273438 Z M 409.21337890625 327.3704223632812 C 364.0126037597656 327.3704223632812 327.3704223632812 290.7281799316406 327.3704223632812 245.5281829833984 C 327.3704223632812 200.3274230957031 364.0126037597656 163.6852416992188 409.21337890625 163.6852416992188 C 454.4134216308594 163.6852416992188 491.0556030273438 200.3274230957031 491.0556030273438 245.5281829833984 C 491.0556030273438 290.7281799316406 454.4134216308594 327.3704223632812 409.21337890625 327.3704223632812 Z M 81.84298706054688 327.3704223632812 C 36.64223861694336 327.3704223632812 -1.098632856155746e-05 290.7281799316406 -1.098632856155746e-05 245.5281829833984 C -1.098632856155746e-05 200.3274230957031 36.64223861694336 163.6852416992188 81.84298706054688 163.6852416992188 C 127.0429916381836 163.6852416992188 163.6852416992188 200.3274230957031 163.6852416992188 245.5281829833984 C 163.6852416992188 290.7281799316406 127.0429916381836 327.3704223632812 81.84298706054688 327.3704223632812 Z M 245.5281829833984 163.6852416992188 C 200.3274230957031 163.6852416992188 163.6852416992188 127.0429916381836 163.6852416992188 81.84298706054688 C 163.6852416992188 36.64223861694336 200.3274230957031 -1.098632856155746e-05 245.5281829833984 -1.098632856155746e-05 C 290.7281799316406 -1.098632856155746e-05 327.3704223632812 36.64223861694336 327.3704223632812 81.84298706054688 C 327.3704223632812 127.0429916381836 290.7281799316406 163.6852416992188 245.5281829833984 163.6852416992188 Z" stroke="none" fill="#707070"/>
  </g>
</svg>
