<svg xmlns="http://www.w3.org/2000/svg" width="200" height="200" viewBox="0 0 200 200">
  <g id="Grupo_1" data-name="Grupo 1" transform="translate(-1325 104)">
    <circle id="Elipse_2" data-name="Elipse 2" cx="100" cy="100" r="100" transform="translate(1325 -104)" fill="#fff"/>
    <path id="Subtração_1" data-name="Subtração 1" d="M111,261A99.492,99.492,0,0,1,55.01,243.868,71.237,71.237,0,0,0,62.8,229c3.454-8.456,7.771-21.613,12.83-39.106l3.081-11.13c8.175-26.823,16.564-55.849,24.934-86.27A45.186,45.186,0,0,1,115,96.5a25.48,25.48,0,0,1,7.774,6.17,24.359,24.359,0,0,1,4.489,8.7,41.187,41.187,0,0,1,1.5,11.588,61.912,61.912,0,0,1-15.674,40.569,93.1,93.1,0,0,1-10.693,8.861,49.116,49.116,0,0,1-10.84,5.2c-3.11.972-5.278,2.056-6.445,3.223a6.56,6.56,0,0,0-1.758,4.834,14.811,14.811,0,0,0,.293,3.367,113.114,113.114,0,0,0,4.614,14.281,176.945,176.945,0,0,0,7.544,16.7c2.916,5.685,5.849,10.835,8.717,15.305a116.724,116.724,0,0,0,9.448,12.74,58.478,58.478,0,0,0,15.172,11.324A100.924,100.924,0,0,1,111,261Zm68.826-27.453v0c.821-3,1.678-6.6,2.547-10.705a22.846,22.846,0,0,1-2.93-1.172,169.354,169.354,0,0,1-21.753-10.218,92.4,92.4,0,0,1-16.04-11.316,86.765,86.765,0,0,1-7.1-7.764,63.557,63.557,0,0,1-4.907-7.91,102.791,102.791,0,0,0,16.406-6.152,67.048,67.048,0,0,0,12.3-8.5,58.947,58.947,0,0,0,15.381-19.555,55.192,55.192,0,0,0,5.42-24.243,42.957,42.957,0,0,0-6.225-22.486,62.409,62.409,0,0,0-17.358-18.311,88.29,88.29,0,0,0-26.441-12.524,113.016,113.016,0,0,0-32.153-4.54,243.127,243.127,0,0,0-26.3,1.312,99.492,99.492,0,0,1,19.407-6.272A100.676,100.676,0,0,1,111,61a99.532,99.532,0,0,1,55.911,17.078,100.292,100.292,0,0,1,36.23,44A99.374,99.374,0,0,1,211,161a100.693,100.693,0,0,1-2.171,20.822A99.485,99.485,0,0,1,192.8,218.54a100.741,100.741,0,0,1-12.969,15ZM18.984,200.22v0A99.891,99.891,0,0,1,33.122,98.265a7.472,7.472,0,0,0,5.257,1.673,43.4,43.4,0,0,0,8.057-.586c3.117-.584,6.172-1.028,9.082-1.318l-3.955,9.96c-5.734,14.674-11.18,29.164-16.187,43.067s-9.86,28.316-14.429,42.846c-.676,2.151-1.337,4.274-1.963,6.311Z" transform="translate(1314 -165)" fill="#2222b9"/>
  </g>
</svg>
